HIERARCHY
ROOT Hips
{
	OFFSET -3.958830 18.904000 13.208200
	CHANNELS 6 Xposition Yposition Zposition Zrotation Yrotation Xrotation 
	JOINT LHipJoint
	{
		OFFSET 0.000000 0.000000 0.000000
		CHANNELS 3 Zrotation Yrotation Xrotation
		JOINT LeftUpLeg
		{
			OFFSET 1.800000 -1.400000 0.085000
			CHANNELS 3 Zrotation Yrotation Xrotation
			JOINT LeftLeg
			{
				OFFSET 2.215000 -6.000000 0.000000
				CHANNELS 3 Zrotation Yrotation Xrotation
				JOINT LeftFoot
				{
					OFFSET 2.500000 -6.900000 0.000000
					CHANNELS 3 Zrotation Yrotation Xrotation
					JOINT LeftToeBase
					{
						OFFSET 0.200000 -0.500000 1.950000
						CHANNELS 3 Zrotation Yrotation Xrotation
						End Site
						{
							OFFSET 0.000000 0.000000 0.000000
						}
					}
				}
			}
		}
	}
	JOINT RHipJoint
	{
		OFFSET 0.000000 0.000000 0.000000
		CHANNELS 3 Zrotation Yrotation Xrotation
		JOINT RightUpLeg
		{
			OFFSET -1.800000 -1.400000 0.085000
			CHANNELS 3 Zrotation Yrotation Xrotation
			JOINT RightLeg
			{
				OFFSET -2.215000 -6.000000 0.000000
				CHANNELS 3 Zrotation Yrotation Xrotation
				JOINT RightFoot
				{
					OFFSET -2.500000 -6.900000 0.000000
					CHANNELS 3 Zrotation Yrotation Xrotation
					JOINT RightToeBase
					{
						OFFSET -0.200000 -0.500000 1.950000
						CHANNELS 3 Zrotation Yrotation Xrotation
						End Site
						{
							OFFSET 0.000000 0.000000 0.000000
						}
					}
				}
			}
		}
	}
	JOINT LowerBack
	{
		OFFSET 0.000000 0.000000 0.000000
		CHANNELS 3 Zrotation Yrotation Xrotation
		JOINT Spine
		{
			OFFSET -0.087000 1.940000 -0.288900
			CHANNELS 3 Zrotation Yrotation Xrotation
			JOINT Spine1
			{
				OFFSET 0.000000 1.950000 0.060000
				CHANNELS 3 Zrotation Yrotation Xrotation
				JOINT Neck
				{
					OFFSET 0.000000 0.000000 0.000000
					CHANNELS 3 Zrotation Yrotation Xrotation
					JOINT Neck1
					{
						OFFSET 0.000000 1.600000 0.340000
						CHANNELS 3 Zrotation Yrotation Xrotation
						JOINT Head
						{
							OFFSET 0.000000 1.667000 -0.240000
							CHANNELS 3 Zrotation Yrotation Xrotation
							End Site
							{
								OFFSET 0.000000 0.000000 0.000000
							}
						}
					}
				}
				JOINT LeftShoulder
				{
					OFFSET 0.000000 0.000000 0.000000
					CHANNELS 3 Zrotation Yrotation Xrotation
					JOINT LeftArm
					{
						OFFSET 2.700000 1.550000 -0.730000
						CHANNELS 3 Zrotation Yrotation Xrotation
						JOINT LeftForeArm
						{
							OFFSET 5.450000 0.000000 0.000000
							CHANNELS 3 Zrotation Yrotation Xrotation
							JOINT LeftHand
							{
								OFFSET 3.450000 0.000000 0.000000
								CHANNELS 3 Zrotation Yrotation Xrotation
								JOINT LeftHandIndex1
								{
									OFFSET 0.750000 0.000000 0.000000
									CHANNELS 3 Zrotation Yrotation Xrotation
									End Site
									{
										OFFSET 0.000000 0.000000 0.000000
									}
								}
							}
						}
					}
				}
				JOINT RightShoulder
				{
					OFFSET 0.000000 0.000000 0.000000
					CHANNELS 3 Zrotation Yrotation Xrotation
					JOINT RightArm
					{
						OFFSET -2.700000 1.550000 -0.730000
						CHANNELS 3 Zrotation Yrotation Xrotation
						JOINT RightForeArm
						{
							OFFSET -5.450000 0.000000 0.000000
							CHANNELS 3 Zrotation Yrotation Xrotation
							JOINT RightHand
							{
								OFFSET -3.450000 0.000000 0.000000
								CHANNELS 3 Zrotation Yrotation Xrotation
								JOINT RightHandIndex1
								{
									OFFSET -0.750000 0.000000 0.000000
									CHANNELS 3 Zrotation Yrotation Xrotation
									End Site
									{
										OFFSET 0.000000 0.000000 0.000000
									}
								}
							}
						}
					}
				}
			}
		}
	}
}
MOTION
Frames: 12
Frame Time: 0.016667
-1.347750 14.455840 -5.675370 -47.468643 4.001400 5.039313 -15.879696 11.653768 4.975860 -7.328382 -12.562443 -40.899223 -3.396513 13.325750 58.146683 0.351503 10.302584 0.869992 1.334560 1.313210 1.243830 18.201273 -7.799701 3.790985 13.444855 12.375017 -27.662795 -44.364081 15.753760 46.407462 -2.294055 -9.721171 1.193254 0.628960 -0.027630 0.166460 -2.452169 -4.341794 -8.757034 1.023637 9.349464 67.141756 4.970883 7.860537 34.264310 0.941102 1.676519 -9.029349 1.094829 4.203435 34.545720 -8.234690 8.802650 -21.921860 12.008358 -18.082730 3.655090 -4.291072 -25.270375 1.373880 16.456041 5.791308 -2.096126 -4.523413 2.582200 0.445110 0.215430 0.048990 -0.098900 -18.993141 21.819858 9.383783 25.623250 16.504453 -4.870774 -28.019255 -6.358650 -2.532277 2.188645 -1.981906 0.189880 0.422880 -0.167470 -0.484950 
-1.363390 14.551450 -5.700060 -49.451015 1.791725 6.037496 -15.883869 11.757744 4.766385 -5.042027 -10.564401 -42.521017 -3.218666 13.919709 58.353387 0.308351 10.464913 0.794837 1.322810 1.270700 1.311240 18.195559 -7.687554 4.006589 16.369926 12.954294 -25.368874 -43.340318 14.600504 42.626737 -2.127841 -8.821288 1.454116 0.597280 -0.063980 0.141670 -2.439397 -4.370351 -8.761958 0.724169 10.865668 66.544980 5.909502 9.260888 34.238257 0.737024 1.536790 -9.163181 0.950082 4.402252 35.546440 -9.749180 9.190400 -23.386090 10.806136 -18.537418 4.120612 -4.178970 -24.327502 1.041008 16.442850 7.055549 -1.993252 -4.533564 2.493415 0.498160 0.183960 0.072600 -0.133920 -17.764844 23.593511 8.609031 23.479180 18.027195 -8.759665 -34.842371 -3.445730 -4.800014 2.125814 -2.085080 0.163250 0.457110 -0.158790 -0.529830 
-1.359640 14.682830 -5.737250 -49.990035 -1.061333 7.820797 -15.865042 11.868939 4.612378 -4.443220 -8.873141 -44.022506 -0.507491 13.437056 59.594875 0.250763 10.526077 0.745993 1.350130 1.306450 1.363300 18.197483 -7.788592 4.030822 16.659710 13.118122 -23.708465 -41.154090 13.403210 39.525747 -1.959322 -7.897065 1.697880 0.634980 -0.111700 0.132880 -2.479219 -4.161711 -8.676023 -0.666443 13.398542 65.220772 6.276238 11.318356 34.595515 0.272648 1.995995 -9.228995 1.866789 4.383419 35.929555 -10.682650 9.648990 -25.041970 11.156493 -19.380851 4.409291 -2.798186 -23.812249 0.844397 15.097009 8.360219 -1.910525 -4.564268 2.386589 0.539950 0.153220 0.131130 -0.131030 -17.772100 25.651055 8.016330 24.318953 19.945613 -12.804380 -41.461395 0.238985 -7.889046 2.043184 -2.212600 0.146190 0.494090 -0.178170 -0.556770 
-1.346780 14.796620 -5.781480 -50.963699 -2.304377 9.994074 -15.754893 11.836184 4.491341 -4.439507 -7.633093 -45.691647 3.174054 11.416894 58.638443 0.041746 9.984982 0.911417 1.418400 1.395500 1.417460 18.277858 -8.080974 4.056232 16.657632 13.069973 -22.784201 -38.112462 12.407620 39.192008 -1.846584 -7.386827 1.850644 0.723690 -0.103300 0.111040 -2.754010 -3.459170 -8.564945 0.331899 13.554116 63.936159 5.535527 12.267695 35.540923 -0.491878 1.905110 -9.262161 1.955000 4.730093 35.022495 -10.861130 9.915580 -25.119480 13.394390 -20.351315 4.568173 -3.222931 -23.927368 0.625133 15.439905 9.834010 -1.962129 -4.639613 2.342947 0.527410 0.170470 0.141330 -0.091970 -18.757369 27.199440 7.536401 25.186613 22.205487 -16.199149 -46.236421 4.761491 -11.644674 1.930955 -2.348750 0.122580 0.557260 -0.221920 -0.563910 
-1.324750 14.920330 -5.857070 -52.871757 -2.934885 12.649013 -15.694058 11.757216 4.563204 -3.384990 -6.735528 -49.318935 8.001199 8.996514 59.502117 0.061229 9.717360 0.987225 1.397500 1.352340 1.411670 18.327116 -8.270017 4.024082 17.725708 12.182531 -21.611208 -34.113220 10.117015 36.451192 -1.624286 -6.307334 2.181908 0.650670 -0.196970 0.092920 -2.916250 -2.959130 -8.602069 1.152706 13.638850 63.682018 5.138115 13.444917 33.720369 -1.024623 1.629435 -9.886917 1.146385 4.792225 38.134201 -10.592220 10.327680 -26.769490 11.762794 -21.047206 4.611054 -1.168279 -23.879940 -0.363004 15.921265 10.415966 -1.836068 -4.520200 2.381392 0.579300 0.067070 0.198300 -0.093350 -15.861850 28.393614 7.074102 22.564258 23.013296 -18.123505 -48.263010 10.254275 -14.119055 1.910654 -2.280114 0.154280 0.497270 -0.258830 -0.563280 
-1.301790 15.040940 -5.916650 -52.131913 -3.142507 15.327017 -15.767756 11.875393 4.814072 -4.531150 -7.177739 -52.218516 12.069940 6.930467 60.395734 0.110964 9.653681 0.992259 1.321550 1.225210 1.359180 18.242372 -8.336816 3.739003 16.829047 10.677153 -20.503995 -30.796793 8.322005 34.185661 -1.427809 -5.493590 2.419697 0.545600 -0.266480 0.107850 -2.700435 -3.274530 -8.597584 -1.544192 15.833799 62.518135 6.171618 14.398009 32.724118 -1.383141 1.936840 -11.357786 1.325448 4.879509 42.089824 -10.017570 10.838310 -27.781760 12.063433 -22.365267 5.604968 0.339491 -21.486433 -0.889848 15.479297 10.346339 -1.685497 -4.466983 2.374945 0.658290 -0.011010 0.225230 -0.133820 -15.076360 30.532219 7.333539 21.062891 24.069421 -20.556951 -49.947896 15.197733 -16.572762 1.907411 -2.227851 0.161610 0.408110 -0.227930 -0.584860 
-1.279800 15.154820 -5.990670 -49.185418 -1.950372 18.397001 -15.956684 12.104594 5.285922 -7.928981 -9.259244 -54.636705 13.274352 5.769864 57.745944 0.123016 8.955432 1.248276 1.198020 1.039720 1.272820 18.048809 -8.227212 3.321954 14.418414 9.106060 -20.755834 -26.960599 6.802175 34.148324 -1.256545 -4.899744 2.652702 0.373420 -0.337480 0.068240 -2.173216 -4.385333 -8.632246 -6.229111 18.904819 61.682429 9.103310 14.209328 29.884965 -1.503601 1.626255 -13.367180 0.045569 5.181467 48.029136 -9.569330 11.127140 -28.566490 10.378078 -23.956518 6.887101 2.983516 -18.107911 -1.367712 14.279470 8.579800 -1.466812 -4.298037 2.319669 0.748300 -0.122330 0.238240 -0.160480 -11.886499 33.248133 7.378829 17.453935 24.386331 -22.553034 -50.313607 20.698842 -18.263785 1.945053 -2.038099 0.157170 0.331900 -0.209160 -0.595100 
-1.221850 15.290020 -6.059710 -45.297426 -0.748499 21.262368 -16.093960 12.370032 5.662438 -10.550120 -10.919627 -55.161845 9.774987 6.638957 51.073918 -0.011569 7.562752 1.724591 1.115360 0.888970 1.242310 17.877956 -8.237833 2.919096 11.290666 7.873966 -20.975081 -22.393109 5.361980 35.833764 -1.137147 -4.498354 2.790103 0.243730 -0.454580 0.010360 -1.752219 -5.382876 -8.621765 -10.322936 21.748716 62.115626 11.594785 13.656230 26.889423 -1.074194 0.795496 -15.751987 -2.584492 5.540039 53.790877 -8.956650 10.669510 -28.849700 8.869826 -26.130940 7.470111 6.398651 -15.544185 -2.175670 12.929282 7.616061 -1.305357 -4.146897 2.241052 0.827860 -0.267090 0.272700 -0.185210 -9.510965 36.555790 7.600563 13.272361 24.074626 -24.723818 -50.013513 23.996820 -18.684795 2.114325 -1.919045 0.155750 0.261440 -0.221890 -0.615670 
-1.149020 15.378840 -6.136370 -43.494509 -1.318864 23.083034 -16.098082 12.440413 5.826531 -13.085408 -11.400673 -56.272395 10.746652 5.653219 45.782687 -0.170882 6.380556 2.124255 1.113480 0.844940 1.254010 17.842228 -8.375073 2.740875 9.817775 7.426267 -19.453960 -17.052436 3.594095 39.535859 -1.160412 -4.606014 2.736474 0.179560 -0.520040 0.019720 -1.705111 -5.507974 -8.601631 -11.872847 23.220170 63.382585 11.379577 13.973479 24.210479 -0.379983 0.119827 -16.761596 -4.642374 5.811317 56.489327 -8.455620 9.716970 -30.130960 7.843910 -27.244070 7.157321 9.856193 -14.729970 -2.843885 11.443899 7.356237 -1.335155 -4.079912 2.164043 0.894850 -0.352570 0.314370 -0.201220 -8.787962 38.724734 7.094809 10.143175 24.910206 -25.547321 -48.391108 26.449288 -18.370072 2.204648 -1.837796 0.184320 0.216120 -0.227270 -0.620420 
-1.089680 15.446580 -6.220780 -41.810858 -2.914439 24.646470 -16.034787 12.464612 5.958857 -14.643762 -11.499308 -57.684716 11.382079 5.516913 44.726683 -0.054768 5.995713 2.252596 1.140330 0.936880 1.210700 17.857651 -8.685167 2.524959 8.899985 5.970605 -16.972087 -14.822244 2.456072 37.645662 -1.129059 -4.231045 2.899235 0.148280 -0.585970 0.003270 -1.825636 -5.212978 -8.556023 -13.208774 24.612920 64.723070 9.933512 14.496500 21.041694 0.240235 -0.721235 -17.905026 -7.382165 6.766664 59.800241 -6.827290 9.097980 -31.644680 7.086685 -28.344128 6.798771 13.362285 -14.106754 -3.687774 9.908343 6.879017 -1.251160 -3.956294 2.105275 0.887300 -0.440390 0.395820 -0.153310 -8.137253 40.893586 6.609540 7.554699 26.273857 -25.465878 -46.339474 27.157258 -17.241629 2.338939 -1.767490 0.279400 0.185080 -0.297560 -0.543050 
-1.084550 15.499410 -6.295140 -39.228437 -5.143925 26.328257 -16.014511 12.420707 6.160350 -16.937785 -12.276138 -59.839460 14.103672 5.192990 47.991973 0.238134 6.433648 2.070505 1.171600 1.049990 1.166980 17.869660 -8.855218 2.277845 6.470686 5.527416 -16.017430 -12.458497 1.615388 38.201056 -1.148837 -4.171170 2.960748 0.113520 -0.691370 -0.019230 -1.888073 -5.003802 -8.574884 -15.914750 27.408165 65.163867 9.115131 14.704557 17.304288 0.953020 -1.281558 -19.637236 -9.604909 8.255943 64.610349 -5.387370 9.366390 -33.352910 7.152667 -29.524778 6.682195 15.653423 -13.252261 -4.559065 9.549620 5.685910 -1.094646 -3.798824 2.112094 0.886570 -0.542080 0.495380 -0.112790 -8.075524 42.722663 6.372314 6.052547 28.288066 -24.512177 -44.092783 26.454370 -15.595294 2.451117 -1.679868 0.389800 0.120300 -0.381080 -0.470840 
-1.085330 15.520970 -6.375930 -36.496142 -6.738315 28.682159 -16.036279 12.159950 6.534142 -18.889963 -14.295480 -64.324667 18.794240 3.993528 55.912017 0.767512 7.888916 1.603079 1.217180 1.164320 1.149440 17.900397 -8.843186 2.036201 3.815643 5.687239 -16.695443 -10.154259 0.832220 39.097026 -1.177190 -4.128980 3.014461 0.069990 -0.757430 -0.029920 -1.940527 -4.745958 -8.710473 -17.849402 29.402764 65.443937 8.641211 14.198418 12.787504 1.775728 -2.110140 -21.051349 -12.458351 10.019820 69.273926 -3.923250 9.315320 -33.546570 7.001974 -30.926340 6.524697 16.833120 -13.498217 -5.246398 9.455335 5.170340 -0.926250 -3.661858 2.139576 0.863360 -0.626030 0.593650 -0.043700 -7.947846 44.631350 5.198938 4.083155 29.849082 -22.126708 -40.069255 25.094478 -12.912002 2.526347 -1.535495 0.508880 0.082400 -0.482660 -0.378000 
